# xmcd
#
# Track frame offsets:
#	150
#	28897
#	47968
#	76232
#	90751
#	112671
#	135726
#	156031
#	174733
#	202021
#	222916
#	235761
#	269863
#	293266
#	321463
#	338156
#
# Disc length: 4777 seconds
#
# Revision: 1
# Processed by: cddbd v1.5.1PL0 Copyright (c) Steve Scherf et al.
# Submitted via: audiograbber 1.83.01
#
DISCID=e212a710
DTITLE=Robin Trower - 1973-08-06 - Denver and 1974-11-24 - Cincinnati  - FM 
DYEAR=1900
DGENRE=
TTITLE0=Daydream
TTITLE1=Another Day Another Night
TTITLE2=I Cant Wait Much Longer
TTITLE3=Man of the World
TTITLE4=Sinners Song
TTITLE5=Little Bit of Sympathy
TTITLE6=I Cant Stand It
TTITLE7=Twice Removed From Yesterday
TTITLE8=Bridge Of Sighs
TTITLE9=Alethea
TTITLE10=Lady Love
TTITLE11=Daydream
TTITLE12=Too Rolling Stoned
TTITLE13=I Can't Wait Much Longer
TTITLE14=Day Of The Eagle
TTITLE15=Little Bit Of Sympathy
EXTD=
EXTT0=
EXTT1=
EXTT2=
EXTT3=
EXTT4=
EXTT5=
EXTT6=
EXTT7=
EXTT8=
EXTT9=
EXTT10=
EXTT11=
EXTT12=
EXTT13=
EXTT14=
EXTT15=
PLAYORDER=
